<svg width="246" height="243" viewBox="0 0 246 243" fill="none" xmlns="http://www.w3.org/2000/svg">
<path d="M130.637 9.93716L151.129 75.6649C153.213 82.3497 159.402 86.9028 166.404 86.9028H233.737C241.406 86.9028 244.68 96.6508 238.566 101.281L183.251 143.166C177.873 147.238 175.627 154.245 177.634 160.684L198.56 227.804C200.876 235.233 192.297 241.26 186.093 236.563L132.659 196.102C126.946 191.776 119.054 191.776 113.341 196.102L59.9071 236.563C53.7032 241.26 45.1242 235.233 47.4403 227.804L68.3656 160.684C70.3732 154.245 68.1268 147.238 62.7495 143.166L7.43399 101.281C1.3196 96.6508 4.59388 86.9028 12.2633 86.9028H79.5963C86.5985 86.9028 92.7872 82.3497 94.8712 75.6649L115.363 9.93713C117.698 2.44523 128.302 2.44521 130.637 9.93716Z" fill="white"/>
<path d="M130.637 9.93716L151.129 75.6649C153.213 82.3497 159.402 86.9028 166.404 86.9028H233.737C241.406 86.9028 244.68 96.6508 238.566 101.281L183.251 143.166C177.873 147.238 175.627 154.245 177.634 160.684L198.56 227.804C200.876 235.233 192.297 241.26 186.093 236.563L132.659 196.102C126.946 191.776 119.054 191.776 113.341 196.102L59.9071 236.563C53.7032 241.26 45.1242 235.233 47.4403 227.804L68.3656 160.684C70.3732 154.245 68.1268 147.238 62.7495 143.166L7.43399 101.281C1.3196 96.6508 4.59388 86.9028 12.2633 86.9028H79.5963C86.5985 86.9028 92.7872 82.3497 94.8712 75.6649L115.363 9.93713C117.698 2.44523 128.302 2.44521 130.637 9.93716Z" stroke="#FDEB46" stroke-width="8"/>
<path d="M130.637 9.93716L151.129 75.6649C153.213 82.3497 159.402 86.9028 166.404 86.9028H233.737C241.406 86.9028 244.68 96.6508 238.566 101.281L183.251 143.166C177.873 147.238 175.627 154.245 177.634 160.684L198.56 227.804C200.876 235.233 192.297 241.26 186.093 236.563L132.659 196.102C126.946 191.776 119.054 191.776 113.341 196.102L59.9071 236.563C53.7032 241.26 45.1242 235.233 47.4403 227.804L68.3656 160.684C70.3732 154.245 68.1268 147.238 62.7495 143.166L7.43399 101.281C1.3196 96.6508 4.59388 86.9028 12.2633 86.9028H79.5963C86.5985 86.9028 92.7872 82.3497 94.8712 75.6649L115.363 9.93713C117.698 2.44523 128.302 2.44521 130.637 9.93716Z" stroke="#F5DB8B" stroke-opacity="0.05" stroke-width="8"/>
</svg>
